<svg width="1009" height="1009" viewBox="0 0 1009 1009" fill="none" xmlns="http://www.w3.org/2000/svg">
<g filter="url(#filter0_dd_102_3)">
<rect x="175.467" y="175.467" width="658" height="658" rx="146.222" fill="url(#paint0_linear_102_3)"/>
<g filter="url(#filter1_d_102_3)">
<g filter="url(#filter2_d_102_3)">
<path d="M529.485 605.953C530.463 607.933 529.653 610.331 527.67 611.311C509.871 620.104 488.24 612.775 479.449 594.98C478.471 593.001 479.28 590.602 481.263 589.622C483.246 588.643 485.643 589.457 486.621 591.437C493.46 605.279 510.287 610.975 524.127 604.139C526.11 603.159 528.507 603.973 529.485 605.953Z" fill="url(#paint1_linear_102_3)"/>
</g>
<g filter="url(#filter3_d_102_3)">
<path d="M586.973 404.652C585.59 402.931 585.86 400.414 587.584 399.028C603.053 386.587 625.759 389.053 638.198 404.52C639.582 406.241 639.312 408.757 637.588 410.144C635.864 411.53 633.348 411.254 631.964 409.533C622.288 397.502 604.626 395.588 592.597 405.262C590.873 406.648 588.357 406.372 586.973 404.652Z" fill="url(#paint2_linear_102_3)"/>
</g>
<g filter="url(#filter4_d_102_3)">
<path d="M379.287 408.579C377.655 407.091 377.536 404.563 379.027 402.929C392.405 388.262 415.221 387.216 429.885 400.592C431.516 402.08 431.635 404.609 430.145 406.243C428.654 407.877 426.125 407.991 424.494 406.503C413.087 396.097 395.34 396.915 384.937 408.32C383.447 409.954 380.918 410.067 379.287 408.579Z" fill="url(#paint3_linear_102_3)"/>
</g>
<g filter="url(#filter5_d_102_3)">
<path d="M688.467 488.465H678.827C675.807 473.601 668.563 459.425 657.035 447.897C625.795 416.657 575.139 416.657 543.899 447.897C538.843 452.953 534.691 458.557 531.275 464.465H530.983C523.383 459.417 514.275 456.465 504.471 456.465C494.667 456.465 485.559 459.417 477.959 464.465H477.667C474.247 458.557 470.099 452.953 465.043 447.897C433.803 416.657 383.147 416.657 351.907 447.897C340.379 459.425 333.135 473.601 330.115 488.465H320.467C316.047 488.465 312.467 492.045 312.467 496.465V512.465C312.467 516.885 316.047 520.465 320.467 520.465H330.107C333.127 535.329 340.371 549.505 351.899 561.033C383.139 592.273 433.795 592.273 465.035 561.033C467.783 558.285 470.203 555.341 472.467 552.317C474.399 549.737 476.159 547.077 477.739 544.333C484.831 532.021 488.467 518.261 488.467 504.465C488.467 495.629 495.631 488.465 504.467 488.465C513.303 488.465 520.467 495.629 520.467 504.465C520.467 518.261 524.103 532.021 531.195 544.333C532.775 547.077 534.535 549.737 536.467 552.317C538.731 555.341 541.151 558.285 543.899 561.033C575.139 592.273 625.795 592.273 657.035 561.033C668.563 549.505 675.807 535.329 678.827 520.465H688.467C692.887 520.465 696.467 516.885 696.467 512.465V496.465C696.467 492.045 692.887 488.465 688.467 488.465ZM442.407 538.405C423.663 557.149 393.271 557.149 374.523 538.405C355.779 519.661 355.779 489.269 374.523 470.521C393.267 451.777 423.659 451.777 442.407 470.521C451.779 479.893 456.467 492.177 456.467 504.461C456.467 516.749 451.779 529.033 442.407 538.405ZM634.407 538.405C615.663 557.149 585.271 557.149 566.523 538.405C557.151 529.033 552.463 516.749 552.463 504.465C552.463 492.181 557.151 479.897 566.523 470.525C585.267 451.781 615.659 451.781 634.407 470.525C653.155 489.269 653.155 519.661 634.407 538.405Z" fill="url(#paint4_linear_102_3)"/>
</g>
<g filter="url(#filter6_i_102_3)">
<path d="M424.467 536.467C435.512 536.467 444.467 527.512 444.467 516.467C444.467 505.421 435.512 496.467 424.467 496.467C413.421 496.467 404.467 505.421 404.467 516.467C404.467 527.512 413.421 536.467 424.467 536.467Z" fill="url(#paint5_linear_102_3)"/>
</g>
<g filter="url(#filter7_i_102_3)">
<path d="M616.467 536.467C627.512 536.467 636.467 527.512 636.467 516.467C636.467 505.421 627.512 496.467 616.467 496.467C605.421 496.467 596.467 505.421 596.467 516.467C596.467 527.512 605.421 536.467 616.467 536.467Z" fill="url(#paint6_linear_102_3)"/>
</g>
</g>
</g>
<defs>
<filter id="filter0_dd_102_3" x="1.14441e-05" y="-0.000110626" width="1008.93" height="1008.93" filterUnits="userSpaceOnUse" color-interpolation-filters="sRGB">
<feFlood flood-opacity="0" result="BackgroundImageFix"/>
<feColorMatrix in="SourceAlpha" type="matrix" values="0 0 0 0 0 0 0 0 0 0 0 0 0 0 0 0 0 0 127 0" result="hardAlpha"/>
<feOffset dx="58.4889" dy="58.4889"/>
<feGaussianBlur stdDeviation="58.4889"/>
<feComposite in2="hardAlpha" operator="out"/>
<feColorMatrix type="matrix" values="0 0 0 0 0.692222 0 0 0 0 0.716944 0 0 0 0 0.741667 0 0 0 1 0"/>
<feBlend mode="normal" in2="BackgroundImageFix" result="effect1_dropShadow_102_3"/>
<feColorMatrix in="SourceAlpha" type="matrix" values="0 0 0 0 0 0 0 0 0 0 0 0 0 0 0 0 0 0 127 0" result="hardAlpha"/>
<feOffset dx="-58.4889" dy="-58.4889"/>
<feGaussianBlur stdDeviation="58.4889"/>
<feComposite in2="hardAlpha" operator="out"/>
<feColorMatrix type="matrix" values="0 0 0 0 1 0 0 0 0 1 0 0 0 0 1 0 0 0 1 0"/>
<feBlend mode="normal" in2="effect1_dropShadow_102_3" result="effect2_dropShadow_102_3"/>
<feBlend mode="normal" in="SourceGraphic" in2="effect2_dropShadow_102_3" result="shape"/>
</filter>
<filter id="filter1_d_102_3" x="232.298" y="309.844" width="544.338" height="424.338" filterUnits="userSpaceOnUse" color-interpolation-filters="sRGB">
<feFlood flood-opacity="0" result="BackgroundImageFix"/>
<feColorMatrix in="SourceAlpha" type="matrix" values="0 0 0 0 0 0 0 0 0 0 0 0 0 0 0 0 0 0 127 0" result="hardAlpha"/>
<feOffset dy="17.5467"/>
<feGaussianBlur stdDeviation="16.0844"/>
<feComposite in2="hardAlpha" operator="out"/>
<feColorMatrix type="matrix" values="0 0 0 0 0.286493 0 0 0 0 0.301053 0 0 0 0 0.308333 0 0 0 0.63 0"/>
<feBlend mode="normal" in2="BackgroundImageFix" result="effect1_dropShadow_102_3"/>
<feBlend mode="normal" in="SourceGraphic" in2="effect1_dropShadow_102_3" result="shape"/>
</filter>
<filter id="filter2_d_102_3" x="446.865" y="574.585" width="115.204" height="90.162" filterUnits="userSpaceOnUse" color-interpolation-filters="sRGB">
<feFlood flood-opacity="0" result="BackgroundImageFix"/>
<feColorMatrix in="SourceAlpha" type="matrix" values="0 0 0 0 0 0 0 0 0 0 0 0 0 0 0 0 0 0 127 0" result="hardAlpha"/>
<feOffset dy="17.5467"/>
<feGaussianBlur stdDeviation="16.0844"/>
<feComposite in2="hardAlpha" operator="out"/>
<feColorMatrix type="matrix" values="0 0 0 0 0.286493 0 0 0 0 0.301053 0 0 0 0 0.308333 0 0 0 0.63 0"/>
<feBlend mode="normal" in2="BackgroundImageFix" result="effect1_dropShadow_102_3"/>
<feBlend mode="normal" in="SourceGraphic" in2="effect1_dropShadow_102_3" result="shape"/>
</filter>
<filter id="filter3_d_102_3" x="553.921" y="376.474" width="117.329" height="84.2689" filterUnits="userSpaceOnUse" color-interpolation-filters="sRGB">
<feFlood flood-opacity="0" result="BackgroundImageFix"/>
<feColorMatrix in="SourceAlpha" type="matrix" values="0 0 0 0 0 0 0 0 0 0 0 0 0 0 0 0 0 0 127 0" result="hardAlpha"/>
<feOffset dy="17.5467"/>
<feGaussianBlur stdDeviation="16.0844"/>
<feComposite in2="hardAlpha" operator="out"/>
<feColorMatrix type="matrix" values="0 0 0 0 0.286493 0 0 0 0 0.301053 0 0 0 0 0.308333 0 0 0 0.63 0"/>
<feBlend mode="normal" in2="BackgroundImageFix" result="effect1_dropShadow_102_3"/>
<feBlend mode="normal" in="SourceGraphic" in2="effect1_dropShadow_102_3" result="shape"/>
</filter>
<filter id="filter4_d_102_3" x="345.813" y="376.584" width="117.546" height="82.7562" filterUnits="userSpaceOnUse" color-interpolation-filters="sRGB">
<feFlood flood-opacity="0" result="BackgroundImageFix"/>
<feColorMatrix in="SourceAlpha" type="matrix" values="0 0 0 0 0 0 0 0 0 0 0 0 0 0 0 0 0 0 127 0" result="hardAlpha"/>
<feOffset dy="17.5467"/>
<feGaussianBlur stdDeviation="16.0844"/>
<feComposite in2="hardAlpha" operator="out"/>
<feColorMatrix type="matrix" values="0 0 0 0 0.286493 0 0 0 0 0.301053 0 0 0 0 0.308333 0 0 0 0.63 0"/>
<feBlend mode="normal" in2="BackgroundImageFix" result="effect1_dropShadow_102_3"/>
<feBlend mode="normal" in="SourceGraphic" in2="effect1_dropShadow_102_3" result="shape"/>
</filter>
<filter id="filter5_d_102_3" x="280.298" y="409.844" width="448.338" height="224.334" filterUnits="userSpaceOnUse" color-interpolation-filters="sRGB">
<feFlood flood-opacity="0" result="BackgroundImageFix"/>
<feColorMatrix in="SourceAlpha" type="matrix" values="0 0 0 0 0 0 0 0 0 0 0 0 0 0 0 0 0 0 127 0" result="hardAlpha"/>
<feOffset dy="17.5467"/>
<feGaussianBlur stdDeviation="16.0844"/>
<feComposite in2="hardAlpha" operator="out"/>
<feColorMatrix type="matrix" values="0 0 0 0 0.286493 0 0 0 0 0.301053 0 0 0 0 0.308333 0 0 0 0.63 0"/>
<feBlend mode="normal" in2="BackgroundImageFix" result="effect1_dropShadow_102_3"/>
<feBlend mode="normal" in="SourceGraphic" in2="effect1_dropShadow_102_3" result="shape"/>
</filter>
<filter id="filter6_i_102_3" x="404.467" y="496.467" width="40" height="45.8489" filterUnits="userSpaceOnUse" color-interpolation-filters="sRGB">
<feFlood flood-opacity="0" result="BackgroundImageFix"/>
<feBlend mode="normal" in="SourceGraphic" in2="BackgroundImageFix" result="shape"/>
<feColorMatrix in="SourceAlpha" type="matrix" values="0 0 0 0 0 0 0 0 0 0 0 0 0 0 0 0 0 0 127 0" result="hardAlpha"/>
<feOffset dy="5.84889"/>
<feGaussianBlur stdDeviation="2.92444"/>
<feComposite in2="hardAlpha" operator="arithmetic" k2="-1" k3="1"/>
<feColorMatrix type="matrix" values="0 0 0 0 0.766667 0 0 0 0 0.766667 0 0 0 0 0.766667 0 0 0 0.25 0"/>
<feBlend mode="normal" in2="shape" result="effect1_innerShadow_102_3"/>
</filter>
<filter id="filter7_i_102_3" x="596.467" y="496.467" width="40" height="45.8489" filterUnits="userSpaceOnUse" color-interpolation-filters="sRGB">
<feFlood flood-opacity="0" result="BackgroundImageFix"/>
<feBlend mode="normal" in="SourceGraphic" in2="BackgroundImageFix" result="shape"/>
<feColorMatrix in="SourceAlpha" type="matrix" values="0 0 0 0 0 0 0 0 0 0 0 0 0 0 0 0 0 0 127 0" result="hardAlpha"/>
<feOffset dy="5.84889"/>
<feGaussianBlur stdDeviation="2.92444"/>
<feComposite in2="hardAlpha" operator="arithmetic" k2="-1" k3="1"/>
<feColorMatrix type="matrix" values="0 0 0 0 0.766667 0 0 0 0 0.766667 0 0 0 0 0.766667 0 0 0 0.25 0"/>
<feBlend mode="normal" in2="shape" result="effect1_innerShadow_102_3"/>
</filter>
<linearGradient id="paint0_linear_102_3" x1="504.467" y1="175.467" x2="504.467" y2="833.467" gradientUnits="userSpaceOnUse">
<stop stop-color="#E6ECF1"/>
<stop offset="1" stop-color="#E6ECF1"/>
</linearGradient>
<linearGradient id="paint1_linear_102_3" x1="504.467" y1="589.207" x2="504.467" y2="615.032" gradientUnits="userSpaceOnUse">
<stop stop-color="#3B3F41"/>
<stop offset="1" stop-color="#1C1E1F"/>
</linearGradient>
<linearGradient id="paint2_linear_102_3" x1="612.586" y1="391.096" x2="612.586" y2="411.027" gradientUnits="userSpaceOnUse">
<stop stop-color="#3B3F41"/>
<stop offset="1" stop-color="#1C1E1F"/>
</linearGradient>
<linearGradient id="paint3_linear_102_3" x1="404.586" y1="391.206" x2="404.586" y2="409.625" gradientUnits="userSpaceOnUse">
<stop stop-color="#3B3F41"/>
<stop offset="1" stop-color="#1C1E1F"/>
</linearGradient>
<linearGradient id="paint4_linear_102_3" x1="504.467" y1="424.467" x2="504.467" y2="584.463" gradientUnits="userSpaceOnUse">
<stop stop-color="#3B3F41"/>
<stop offset="1" stop-color="#1C1E1F"/>
</linearGradient>
<linearGradient id="paint5_linear_102_3" x1="424.467" y1="496.467" x2="424.467" y2="536.467" gradientUnits="userSpaceOnUse">
<stop stop-color="#3B3F41"/>
<stop offset="1" stop-color="#1C1E1F"/>
</linearGradient>
<linearGradient id="paint6_linear_102_3" x1="616.467" y1="496.467" x2="616.467" y2="536.467" gradientUnits="userSpaceOnUse">
<stop stop-color="#3B3F41"/>
<stop offset="1" stop-color="#1C1E1F"/>
</linearGradient>
</defs>
</svg>
