<svg width="120" height="90" viewBox="0 0 120 90" fill="none" xmlns="http://www.w3.org/2000/svg">
<path d="M66.2545 70.3716C66.499 70.8665 66.2966 71.4662 65.8008 71.7111C61.3512 73.9093 55.9433 72.0771 53.7455 67.6284C53.501 67.1335 53.7033 66.5338 54.1991 66.2889C54.6949 66.044 55.2941 66.2476 55.5386 66.7425C57.2483 70.2032 61.4552 71.6272 64.915 69.918C65.4108 69.6731 66.01 69.8767 66.2545 70.3716Z" fill="black"/>
<path d="M80.6267 20.0463C80.2808 19.6161 80.3483 18.9869 80.7793 18.6403C84.6467 15.53 90.3232 16.1466 93.4329 20.0133C93.7788 20.4435 93.7113 21.0727 93.2803 21.4193C92.8494 21.7659 92.2203 21.6969 91.8744 21.2667C89.4553 18.2588 85.0398 17.7804 82.0327 20.1988C81.6017 20.5454 80.9726 20.4764 80.6267 20.0463Z" fill="black"/>
<path d="M28.705 21.0282C28.2972 20.6562 28.2674 20.0241 28.6401 19.6155C31.9847 15.9488 37.6886 15.6874 41.3546 19.0314C41.7624 19.4034 41.7922 20.0355 41.4195 20.4441C41.0468 20.8526 40.4146 20.881 40.0068 20.509C37.155 17.9077 32.7183 18.1122 30.1177 20.9633C29.7451 21.3719 29.1128 21.4002 28.705 21.0282Z" fill="black"/>
<path d="M106 40.9995H103.59C102.835 37.2835 101.024 33.7395 98.142 30.8575C90.332 23.0475 77.668 23.0475 69.858 30.8575C68.594 32.1215 67.556 33.5225 66.702 34.9995H66.629C64.729 33.7375 62.452 32.9995 60.001 32.9995C57.55 32.9995 55.273 33.7375 53.373 34.9995H53.3C52.445 33.5225 51.408 32.1215 50.144 30.8575C42.334 23.0475 29.67 23.0475 21.86 30.8575C18.978 33.7395 17.167 37.2835 16.412 40.9995H14C12.895 40.9995 12 41.8945 12 42.9995V46.9995C12 48.1045 12.895 48.9995 14 48.9995H16.41C17.165 52.7155 18.976 56.2595 21.858 59.1415C29.668 66.9515 42.332 66.9515 50.142 59.1415C50.829 58.4545 51.434 57.7185 52 56.9625C52.483 56.3175 52.923 55.6525 53.318 54.9665C55.091 51.8885 56 48.4485 56 44.9995C56 42.7905 57.791 40.9995 60 40.9995C62.209 40.9995 64 42.7905 64 44.9995C64 48.4485 64.909 51.8885 66.682 54.9665C67.077 55.6525 67.517 56.3175 68 56.9625C68.566 57.7185 69.171 58.4545 69.858 59.1415C77.668 66.9515 90.332 66.9515 98.142 59.1415C101.024 56.2595 102.835 52.7155 103.59 48.9995H106C107.105 48.9995 108 48.1045 108 46.9995V42.9995C108 41.8945 107.105 40.9995 106 40.9995ZM44.485 53.4845C39.799 58.1705 32.201 58.1705 27.514 53.4845C22.828 48.7985 22.828 41.2005 27.514 36.5135C32.2 31.8275 39.798 31.8275 44.485 36.5135C46.828 38.8565 48 41.9275 48 44.9985C48 48.0705 46.828 51.1415 44.485 53.4845ZM92.485 53.4845C87.799 58.1705 80.201 58.1705 75.514 53.4845C73.171 51.1415 71.999 48.0705 71.999 44.9995C71.999 41.9285 73.171 38.8575 75.514 36.5145C80.2 31.8285 87.798 31.8285 92.485 36.5145C97.172 41.2005 97.172 48.7985 92.485 53.4845Z" fill="black"/>
<circle cx="40" cy="48" r="5" fill="black"/>
<circle cx="88" cy="48" r="5" fill="black"/>
</svg>
